{
  "accessors": [
    {
      "bufferView": 2,
      "componentType": 5126,
      "count": 218,
      "max": [
        0.23792092502117157,
        0.21633142232894897,
        0.11404848843812943
      ],
      "min": [
        -0.2642620801925659,
        -8.973479270935059e-05,
        -0.05446385219693184
      ],
      "type": "VEC3"
    },
    {
      "bufferView": 2,
      "byteOffset": 2616,
      "componentType": 5126,
      "count": 218,
      "max": [
        0.906681478023529,
        0.9805763959884644,
        0.9997167587280273
      ],
      "min": [
        -0.9881247878074646,
        -0.9994280934333801,
        -0.9997166395187378
      ],
      "type": "VEC3"
    },
    {
      "bufferView": 3,
      "componentType": 5126,
      "count": 218,
      "max": [
        0.9884923100471497,
        0.9963973164558411,
        0.9999019503593445,
        1.0
      ],
      "min": [
        -0.9798257350921631,
        -0.9800865650177002,
        -0.8340442776679993,
        -1.0
      ],
      "type": "VEC4"
    },
    {
      "bufferView": 1,
      "componentType": 5126,
      "count": 218,
      "max": [
        0.9808965921401978,
        0.9487903714179993
      ],
      "min": [
        0.003915667533874512,
        0.003915652632713318
      ],
      "type": "VEC2"
    },
    {
      "bufferView": 1,
      "byteOffset": 1744,
      "componentType": 5126,
      "count": 218,
      "max": [
        0.9808965921401978,
        0.9487903714179993
      ],
      "min": [
        0.003915667533874512,
        0.003915652632713318
      ],
      "type": "VEC2"
    },
    {
      "bufferView": 1,
      "byteOffset": 3488,
      "componentType": 5126,
      "count": 218,
      "max": [
        0.9808965921401978,
        0.9487903714179993
      ],
      "min": [
        0.003915667533874512,
        0.003915652632713318
      ],
      "type": "VEC2"
    },
    {
      "bufferView": 0,
      "componentType": 5125,
      "count": 570,
      "type": "SCALAR"
    },
    {
      "bufferView": 2,
      "byteOffset": 5232,
      "componentType": 5126,
      "count": 180,
      "max": [
        0.06817004084587097,
        0.24561139941215515,
        0.06850368529558182
      ],
      "min": [
        -0.03384055197238922,
        0.0,
        -0.03932170942425728
      ],
      "type": "VEC3"
    },
    {
      "bufferView": 2,
      "byteOffset": 7392,
      "componentType": 5126,
      "count": 180,
      "max": [
        0.9913091063499451,
        0.9181800484657288,
        0.9992804527282715
      ],
      "min": [
        -0.9966038465499878,
        -0.9497992396354675,
        -0.9409832954406738
      ],
      "type": "VEC3"
    },
    {
      "bufferView": 3,
      "byteOffset": 3488,
      "componentType": 5126,
      "count": 180,
      "max": [
        0.9804552793502808,
        0.9195339679718018,
        0.9879560470581055,
        1.0
      ],
      "min": [
        -0.993313193321228,
        -0.40134871006011963,
        -0.9897916913032532,
        1.0
      ],
      "type": "VEC4"
    },
    {
      "bufferView": 1,
      "byteOffset": 5232,
      "componentType": 5126,
      "count": 180,
      "max": [
        0.9857962131500244,
        0.9960843920707703
      ],
      "min": [
        0.003915652632713318,
        0.003915667533874512
      ],
      "type": "VEC2"
    },
    {
      "bufferView": 1,
      "byteOffset": 6672,
      "componentType": 5126,
      "count": 180,
      "max": [
        0.9857962131500244,
        0.9960843920707703
      ],
      "min": [
        0.003915652632713318,
        0.003915667533874512
      ],
      "type": "VEC2"
    },
    {
      "bufferView": 1,
      "byteOffset": 8112,
      "componentType": 5126,
      "count": 180,
      "max": [
        0.9857962131500244,
        0.9960843920707703
      ],
      "min": [
        0.003915652632713318,
        0.003915667533874512
      ],
      "type": "VEC2"
    },
    {
      "bufferView": 0,
      "byteOffset": 2280,
      "componentType": 5125,
      "count": 474,
      "type": "SCALAR"
    },
    {
      "bufferView": 2,
      "byteOffset": 9552,
      "componentType": 5126,
      "count": 159,
      "max": [
        0.04506947100162506,
        0.3132617771625519,
        0.045069459825754166
      ],
      "min": [
        -0.04506935179233551,
        0.0,
        -0.04506946727633476
      ],
      "type": "VEC3"
    },
    {
      "bufferView": 2,
      "byteOffset": 11460,
      "componentType": 5126,
      "count": 159,
      "max": [
        0.9321709275245667,
        1.0,
        0.932170569896698
      ],
      "min": [
        -0.9321708083152771,
        -1.0,
        -0.9321706295013428
      ],
      "type": "VEC3"
    },
    {
      "bufferView": 3,
      "byteOffset": 6368,
      "componentType": 5126,
      "count": 159,
      "max": [
        0.9321776032447815,
        1.0,
        0.9515985250473022,
        1.0
      ],
      "min": [
        -0.9321786165237427,
        -0.6069119572639465,
        -0.9997522830963135,
        1.0
      ],
      "type": "VEC4"
    },
    {
      "bufferView": 1,
      "byteOffset": 9552,
      "componentType": 5126,
      "count": 159,
      "max": [
        0.9814441800117493,
        0.9818658232688904
      ],
      "min": [
        0.1076376736164093,
        0.003915660083293915
      ],
      "type": "VEC2"
    },
    {
      "bufferView": 1,
      "byteOffset": 10824,
      "componentType": 5126,
      "count": 159,
      "max": [
        0.9814441800117493,
        0.9818658232688904
      ],
      "min": [
        0.1076376736164093,
        0.003915660083293915
      ],
      "type": "VEC2"
    },
    {
      "bufferView": 1,
      "byteOffset": 12096,
      "componentType": 5126,
      "count": 159,
      "max": [
        0.9814441800117493,
        0.9818658232688904
      ],
      "min": [
        0.1076376736164093,
        0.003915660083293915
      ],
      "type": "VEC2"
    },
    {
      "bufferView": 0,
      "byteOffset": 4176,
      "componentType": 5125,
      "count": 474,
      "type": "SCALAR"
    }
  ],
  "asset": {
    "extras": {
      "author": "Sunbox Games (https://sketchfab.com/sunboxgames)",
      "license": "CC-BY-4.0 (http://creativecommons.org/licenses/by/4.0/)",
      "source": "https://sketchfab.com/3d-models/dirty-plastic-bottles-trash-3-piece-set-b8ab841a17e448058d8080f98d37a714",
      "title": "Dirty Plastic Bottles Trash - 3 Piece Set"
    },
    "generator": "Sketchfab-15.18.0",
    "version": "2.0"
  },
  "bufferViews": [
    {
      "buffer": 0,
      "byteLength": 6072,
      "name": "floatBufferViews",
      "target": 34963
    },
    {
      "buffer": 0,
      "byteLength": 13368,
      "byteOffset": 6072,
      "byteStride": 8,
      "name": "floatBufferViews",
      "target": 34962
    },
    {
      "buffer": 0,
      "byteLength": 13368,
      "byteOffset": 19440,
      "byteStride": 12,
      "name": "floatBufferViews",
      "target": 34962
    },
    {
      "buffer": 0,
      "byteLength": 8912,
      "byteOffset": 32808,
      "byteStride": 16,
      "name": "floatBufferViews",
      "target": 34962
    }
  ],
  "buffers": [
    {
      "byteLength": 41720,
      "uri": "scene.bin"
    }
  ],
  "extensionsUsed": [
    "KHR_materials_specular"
  ],
  "images": [
    {
      "uri": "textures/Plastic_Bottles_baseColor.png"
    },
    {
      "uri": "textures/Plastic_Bottles_metallicRoughness.png"
    },
    {
      "uri": "textures/Plastic_Bottles_normal.png"
    }
  ],
  "materials": [
    {
      "doubleSided": true,
      "extensions": {
        "KHR_materials_specular": {
          "specularColorFactor": [
            1.0,
            1.0,
            1.0
          ],
          "specularFactor": 0.19432774490787286
        }
      },
      "name": "Plastic_Bottles",
      "normalTexture": {
        "index": 2
      },
      "occlusionTexture": {
        "index": 1
      },
      "pbrMetallicRoughness": {
        "baseColorTexture": {
          "index": 0
        },
        "metallicRoughnessTexture": {
          "index": 1
        },
        "roughnessFactor": 0.5271022681926714
      }
    }
  ],
  "meshes": [
    {
      "name": "Plastic_Bottle_03_GEO_Plastic_Bottles_0",
      "primitives": [
        {
          "attributes": {
            "NORMAL": 1,
            "POSITION": 0,
            "TANGENT": 2,
            "TEXCOORD_0": 3,
            "TEXCOORD_1": 4,
            "TEXCOORD_2": 5
          },
          "indices": 6,
          "material": 0,
          "mode": 4
        }
      ]
    },
    {
      "name": "Plastic_Bottle_02_GEO_Plastic_Bottles_0",
      "primitives": [
        {
          "attributes": {
            "NORMAL": 8,
            "POSITION": 7,
            "TANGENT": 9,
            "TEXCOORD_0": 10,
            "TEXCOORD_1": 11,
            "TEXCOORD_2": 12
          },
          "indices": 13,
          "material": 0,
          "mode": 4
        }
      ]
    },
    {
      "name": "Plastic_Bottle_01_GEO_Plastic_Bottles_0",
      "primitives": [
        {
          "attributes": {
            "NORMAL": 15,
            "POSITION": 14,
            "TANGENT": 16,
            "TEXCOORD_0": 17,
            "TEXCOORD_1": 18,
            "TEXCOORD_2": 19
          },
          "indices": 20,
          "material": 0,
          "mode": 4
        }
      ]
    }
  ],
  "nodes": [
    {
      "children": [
        1
      ],
      "matrix": [
        1.1111111640930176,
        0.0,
        0.0,
        0.0,
        0.0,
        2.467162394588257e-16,
        -1.1111111640930176,
        0.0,
        0.0,
        1.1111111640930176,
        2.467162394588257e-16,
        0.0,
        0.0,
        0.0,
        0.0,
        1.0
      ],
      "name": "Sketchfab_model"
    },
    {
      "children": [
        2
      ],
      "matrix": [
        1.0,
        0.0,
        0.0,
        0.0,
        0.0,
        0.0,
        1.0,
        0.0,
        0.0,
        -1.0,
        0.0,
        0.0,
        0.0,
        0.0,
        0.0,
        1.0
      ],
      "name": "2ba8187fbfa749de9b76a4f80b870ceb.fbx"
    },
    {
      "children": [
        3,
        5,
        7
      ],
      "name": "RootNode"
    },
    {
      "children": [
        4
      ],
      "matrix": [
        1.0,
        0.0,
        0.0,
        0.0,
        0.0,
        1.0,
        0.0,
        0.0,
        0.0,
        0.0,
        1.0,
        0.0,
        0.5904644131660461,
        0.0,
        0.0,
        1.0
      ],
      "name": "Plastic_Bottle_03_GEO"
    },
    {
      "mesh": 0,
      "name": "Plastic_Bottle_03_GEO_Plastic_Bottles_0"
    },
    {
      "children": [
        6
      ],
      "name": "Plastic_Bottle_02_GEO"
    },
    {
      "mesh": 1,
      "name": "Plastic_Bottle_02_GEO_Plastic_Bottles_0"
    },
    {
      "children": [
        8
      ],
      "matrix": [
        1.0,
        0.0,
        0.0,
        0.0,
        0.0,
        1.0,
        0.0,
        0.0,
        0.0,
        0.0,
        1.0,
        0.0,
        -0.36700060963630676,
        0.0,
        0.0,
        1.0
      ],
      "name": "Plastic_Bottle_01_GEO"
    },
    {
      "mesh": 2,
      "name": "Plastic_Bottle_01_GEO_Plastic_Bottles_0"
    }
  ],
  "samplers": [
    {
      "magFilter": 9729,
      "minFilter": 9987,
      "wrapS": 10497,
      "wrapT": 10497
    }
  ],
  "scene": 0,
  "scenes": [
    {
      "name": "Sketchfab_Scene",
      "nodes": [
        0
      ]
    }
  ],
  "textures": [
    {
      "sampler": 0,
      "source": 0
    },
    {
      "sampler": 0,
      "source": 1
    },
    {
      "sampler": 0,
      "source": 2
    }
  ]
}
