{
  "accessors": [
    {
      "bufferView": 2,
      "componentType": 5126,
      "count": 14432,
      "max": [
        0.6693956851959229,
        0.24517659842967987,
        0.4957443177700043
      ],
      "min": [
        0.07855066657066345,
        -0.4980742037296295,
        -0.23470935225486755
      ],
      "type": "VEC3"
    },
    {
      "bufferView": 2,
      "byteOffset": 173184,
      "componentType": 5126,
      "count": 14432,
      "max": [
        0.9999755620956421,
        0.9999046325683594,
        0.9998418688774109
      ],
      "min": [
        -0.9994586706161499,
        -0.9999382495880127,
        -0.9999810457229614
      ],
      "type": "VEC3"
    },
    {
      "bufferView": 1,
      "componentType": 5126,
      "count": 14432,
      "max": [
        0.9946670532226563,
        0.9999879002571106
      ],
      "min": [
        5.08163429913111e-06,
        0.0013183356495574117
      ],
      "type": "VEC2"
    },
    {
      "bufferView": 1,
      "byteOffset": 115456,
      "componentType": 5126,
      "count": 14432,
      "max": [
        0.9946670532226563,
        0.9999879002571106
      ],
      "min": [
        5.08163429913111e-06,
        0.0013183356495574117
      ],
      "type": "VEC2"
    },
    {
      "bufferView": 1,
      "byteOffset": 230912,
      "componentType": 5126,
      "count": 14432,
      "max": [
        0.9946670532226563,
        0.9999879002571106
      ],
      "min": [
        5.08163429913111e-06,
        0.0013183356495574117
      ],
      "type": "VEC2"
    },
    {
      "bufferView": 0,
      "componentType": 5125,
      "count": 67818,
      "type": "SCALAR"
    }
  ],
  "asset": {
    "extras": {
      "author": "dycember (https://sketchfab.com/dycember)",
      "license": "CC-BY-NC-SA-4.0 (http://creativecommons.org/licenses/by-nc-sa/4.0/)",
      "source": "https://sketchfab.com/3d-models/blue-plastic-bag-ff9e968da84b44929f2b72d37f59aaf3",
      "title": "Blue Plastic Bag"
    },
    "generator": "Sketchfab-14.28.0",
    "version": "2.0"
  },
  "bufferViews": [
    {
      "buffer": 0,
      "byteLength": 271272,
      "name": "floatBufferViews",
      "target": 34963
    },
    {
      "buffer": 0,
      "byteLength": 346368,
      "byteOffset": 271272,
      "byteStride": 8,
      "name": "floatBufferViews",
      "target": 34962
    },
    {
      "buffer": 0,
      "byteLength": 346368,
      "byteOffset": 617640,
      "byteStride": 12,
      "name": "floatBufferViews",
      "target": 34962
    }
  ],
  "buffers": [
    {
      "byteLength": 964008,
      "uri": "scene.bin"
    }
  ],
  "extensionsUsed": [
    "KHR_materials_unlit"
  ],
  "images": [
    {
      "uri": "textures/material_0_baseColor.jpeg"
    }
  ],
  "materials": [
    {
      "extensions": {
        "KHR_materials_unlit": {}
      },
      "name": "material_0",
      "pbrMetallicRoughness": {
        "baseColorTexture": {
          "index": 0
        },
        "metallicFactor": 0.0
      }
    }
  ],
  "meshes": [
    {
      "name": "Object_0",
      "primitives": [
        {
          "attributes": {
            "NORMAL": 1,
            "POSITION": 0,
            "TEXCOORD_0": 2,
            "TEXCOORD_1": 3,
            "TEXCOORD_2": 4
          },
          "indices": 5,
          "material": 0,
          "mode": 4
        }
      ]
    }
  ],
  "nodes": [
    {
      "children": [
        1
      ],
      "matrix": [
        1.0,
        0.0,
        0.0,
        0.0,
        0.0,
        2.220446049250313e-16,
        -1.0,
        0.0,
        0.0,
        1.0,
        2.220446049250313e-16,
        0.0,
        0.0,
        0.0,
        0.0,
        1.0
      ],
      "name": "Sketchfab_model"
    },
    {
      "children": [
        2
      ],
      "name": "root"
    },
    {
      "children": [
        3
      ],
      "matrix": [
        1.0,
        0.0,
        0.0,
        0.0,
        0.0,
        2.220446049250313e-16,
        1.0,
        0.0,
        0.0,
        -1.0,
        2.220446049250313e-16,
        0.0,
        0.0,
        0.0,
        0.0,
        1.0
      ],
      "name": "GLTF_SceneRootNode"
    },
    {
      "children": [
        4
      ],
      "name": "_0"
    },
    {
      "mesh": 0,
      "name": "Object_4"
    }
  ],
  "samplers": [
    {
      "magFilter": 9729,
      "minFilter": 9987,
      "wrapS": 10497,
      "wrapT": 10497
    }
  ],
  "scene": 0,
  "scenes": [
    {
      "name": "Sketchfab_Scene",
      "nodes": [
        0
      ]
    }
  ],
  "textures": [
    {
      "sampler": 0,
      "source": 0
    }
  ]
}
