{
  "accessors": [
    {
      "bufferView": 2,
      "componentType": 5126,
      "count": 5525,
      "max": [
        0.6023650169372559,
        0.655439019203186,
        5.220739841461182
      ],
      "min": [
        -0.7797719836235046,
        -0.7267000079154968,
        4.406990051269531
      ],
      "type": "VEC3"
    },
    {
      "bufferView": 2,
      "byteOffset": 66300,
      "componentType": 5126,
      "count": 5525,
      "max": [
        1.0,
        1.0,
        1.0
      ],
      "min": [
        -1.0,
        -1.0,
        -1.0
      ],
      "type": "VEC3"
    },
    {
      "bufferView": 1,
      "componentType": 5126,
      "count": 5525,
      "max": [
        1.0,
        0.14236900210380554
      ],
      "min": [
        0.0,
        0.0
      ],
      "type": "VEC2"
    },
    {
      "bufferView": 0,
      "componentType": 5125,
      "count": 27648,
      "type": "SCALAR"
    },
    {
      "bufferView": 2,
      "byteOffset": 132600,
      "componentType": 5126,
      "count": 6189,
      "max": [
        1.3679900169372559,
        1.4459400177001953,
        5.337319850921631
      ],
      "min": [
        -1.5238900184631348,
        -1.4459400177001953,
        0.10255099833011627
      ],
      "type": "VEC3"
    },
    {
      "bufferView": 2,
      "byteOffset": 206868,
      "componentType": 5126,
      "count": 6189,
      "max": [
        1.0,
        1.0,
        0.9899522662162781
      ],
      "min": [
        -1.0,
        -1.0,
        -0.997515857219696
      ],
      "type": "VEC3"
    },
    {
      "bufferView": 1,
      "byteOffset": 44200,
      "componentType": 5126,
      "count": 6189,
      "max": [
        0.0,
        0.0
      ],
      "min": [
        0.0,
        0.0
      ],
      "type": "VEC2"
    },
    {
      "bufferView": 0,
      "byteOffset": 110592,
      "componentType": 5125,
      "count": 26496,
      "type": "SCALAR"
    },
    {
      "bufferView": 2,
      "byteOffset": 281136,
      "componentType": 5126,
      "count": 9925,
      "max": [
        0.8880500197410583,
        1.1625699996948242,
        5.199709892272949
      ],
      "min": [
        -1.1749199628829956,
        -0.9840949773788452,
        4.922520160675049
      ],
      "type": "VEC3"
    },
    {
      "bufferView": 2,
      "byteOffset": 400236,
      "componentType": 5126,
      "count": 9925,
      "max": [
        1.0,
        0.9995338916778564,
        1.0
      ],
      "min": [
        -1.0,
        -0.9995336532592773,
        -1.0
      ],
      "type": "VEC3"
    },
    {
      "bufferView": 1,
      "byteOffset": 93712,
      "componentType": 5126,
      "count": 9925,
      "max": [
        1.0,
        0.9166669845581055
      ],
      "min": [
        0.0,
        0.0
      ],
      "type": "VEC2"
    },
    {
      "bufferView": 0,
      "byteOffset": 216576,
      "componentType": 5125,
      "count": 47520,
      "type": "SCALAR"
    },
    {
      "bufferView": 2,
      "byteOffset": 519336,
      "componentType": 5126,
      "count": 65532,
      "max": [
        1.2044600248336792,
        1.3661199808120728,
        1.4265199899673462
      ],
      "min": [
        -1.4686800241470337,
        -1.2505799531936646,
        0.08101300150156021
      ],
      "type": "VEC3"
    },
    {
      "bufferView": 2,
      "byteOffset": 1305720,
      "componentType": 5126,
      "count": 65532,
      "max": [
        0.9999408721923828,
        0.9998770952224731,
        0.999801754951477
      ],
      "min": [
        -0.9999971389770508,
        -0.9999974966049194,
        -0.9998604655265808
      ],
      "type": "VEC3"
    },
    {
      "bufferView": 1,
      "byteOffset": 173112,
      "componentType": 5126,
      "count": 65532,
      "max": [
        0.9638010263442993,
        0.9453189969062805
      ],
      "min": [
        0.03168340027332306,
        0.03629310056567192
      ],
      "type": "VEC2"
    },
    {
      "bufferView": 0,
      "byteOffset": 406656,
      "componentType": 5125,
      "count": 177300,
      "type": "SCALAR"
    },
    {
      "bufferView": 2,
      "byteOffset": 2092104,
      "componentType": 5126,
      "count": 65532,
      "max": [
        1.2491999864578247,
        1.3536399602890015,
        2.1372599601745605
      ],
      "min": [
        -1.423930048942566,
        -1.2630599737167358,
        0.6440569758415222
      ],
      "type": "VEC3"
    },
    {
      "bufferView": 2,
      "byteOffset": 2878488,
      "componentType": 5126,
      "count": 65532,
      "max": [
        0.9999408721923828,
        0.9999973773956299,
        0.9998605251312256
      ],
      "min": [
        -0.9999971389770508,
        -0.9998727440834045,
        -0.9998512268066406
      ],
      "type": "VEC3"
    },
    {
      "bufferView": 1,
      "byteOffset": 697368,
      "componentType": 5126,
      "count": 65532,
      "max": [
        0.9638010263442993,
        0.9453189969062805
      ],
      "min": [
        0.03168340027332306,
        0.03629310056567192
      ],
      "type": "VEC2"
    },
    {
      "bufferView": 0,
      "byteOffset": 1115856,
      "componentType": 5125,
      "count": 175950,
      "type": "SCALAR"
    },
    {
      "bufferView": 2,
      "byteOffset": 3664872,
      "componentType": 5126,
      "count": 65532,
      "max": [
        1.12663996219635,
        1.3344099521636963,
        2.373110055923462
      ],
      "min": [
        -1.121899962425232,
        -1.2785199880599976,
        0.8732699751853943
      ],
      "type": "VEC3"
    },
    {
      "bufferView": 2,
      "byteOffset": 4451256,
      "componentType": 5126,
      "count": 65532,
      "max": [
        0.9999245405197144,
        0.9999996423721313,
        0.9999757409095764
      ],
      "min": [
        -0.9999608993530273,
        -0.9999996423721313,
        -0.99992835521698
      ],
      "type": "VEC3"
    },
    {
      "bufferView": 1,
      "byteOffset": 1221624,
      "componentType": 5126,
      "count": 65532,
      "max": [
        0.9638010263442993,
        0.9453189969062805
      ],
      "min": [
        0.03168340027332306,
        0.03629310056567192
      ],
      "type": "VEC2"
    },
    {
      "bufferView": 0,
      "byteOffset": 1819656,
      "componentType": 5125,
      "count": 177873,
      "type": "SCALAR"
    },
    {
      "bufferView": 2,
      "byteOffset": 5237640,
      "componentType": 5126,
      "count": 65532,
      "max": [
        1.1212999820709229,
        1.3240699768066406,
        2.4897799491882324
      ],
      "min": [
        -1.1805800199508667,
        -1.2818299531936646,
        0.8395329713821411
      ],
      "type": "VEC3"
    },
    {
      "bufferView": 2,
      "byteOffset": 6024024,
      "componentType": 5126,
      "count": 65532,
      "max": [
        0.9999963641166687,
        0.9999978542327881,
        0.9999983310699463
      ],
      "min": [
        -0.9999399781227112,
        -0.999957263469696,
        -0.9999962449073792
      ],
      "type": "VEC3"
    },
    {
      "bufferView": 1,
      "byteOffset": 1745880,
      "componentType": 5126,
      "count": 65532,
      "max": [
        0.9638010263442993,
        0.9453189969062805
      ],
      "min": [
        0.03168340027332306,
        0.03629310056567192
      ],
      "type": "VEC2"
    },
    {
      "bufferView": 0,
      "byteOffset": 2531148,
      "componentType": 5125,
      "count": 179337,
      "type": "SCALAR"
    },
    {
      "bufferView": 2,
      "byteOffset": 6810408,
      "componentType": 5126,
      "count": 65532,
      "max": [
        1.1719199419021606,
        1.3154000043869019,
        2.1366500854492188
      ],
      "min": [
        -1.0793100595474243,
        -1.3383699655532837,
        0.08101300150156021
      ],
      "type": "VEC3"
    },
    {
      "bufferView": 2,
      "byteOffset": 7596792,
      "componentType": 5126,
      "count": 65532,
      "max": [
        0.9999953508377075,
        0.9999948740005493,
        0.9999983310699463
      ],
      "min": [
        -0.9999953508377075,
        -0.999970018863678,
        -0.9999856352806091
      ],
      "type": "VEC3"
    },
    {
      "bufferView": 1,
      "byteOffset": 2270136,
      "componentType": 5126,
      "count": 65532,
      "max": [
        0.9638010263442993,
        0.9453189969062805
      ],
      "min": [
        0.03168340027332306,
        0.03629310056567192
      ],
      "type": "VEC2"
    },
    {
      "bufferView": 0,
      "byteOffset": 3248496,
      "componentType": 5125,
      "count": 176829,
      "type": "SCALAR"
    },
    {
      "bufferView": 2,
      "byteOffset": 8383176,
      "componentType": 5126,
      "count": 65532,
      "max": [
        1.248129963874817,
        1.4061000347137451,
        2.241919994354248
      ],
      "min": [
        -1.450850009918213,
        -1.2868399620056152,
        0.2220350056886673
      ],
      "type": "VEC3"
    },
    {
      "bufferView": 2,
      "byteOffset": 9169560,
      "componentType": 5126,
      "count": 65532,
      "max": [
        0.9999960064888,
        0.999978244304657,
        0.9999022483825684
      ],
      "min": [
        -0.9999963641166687,
        -0.9999762177467346,
        -0.9999974966049194
      ],
      "type": "VEC3"
    },
    {
      "bufferView": 1,
      "byteOffset": 2794392,
      "componentType": 5126,
      "count": 65532,
      "max": [
        0.9638010263442993,
        0.9453189969062805
      ],
      "min": [
        0.03168340027332306,
        0.03629310056567192
      ],
      "type": "VEC2"
    },
    {
      "bufferView": 0,
      "byteOffset": 3955812,
      "componentType": 5125,
      "count": 177024,
      "type": "SCALAR"
    },
    {
      "bufferView": 2,
      "byteOffset": 9955944,
      "componentType": 5126,
      "count": 26122,
      "max": [
        0.7177720069885254,
        0.8798120021820068,
        1.925130009651184
      ],
      "min": [
        -0.9654499888420105,
        -0.699862003326416,
        1.3815900087356567
      ],
      "type": "VEC3"
    },
    {
      "bufferView": 2,
      "byteOffset": 10269408,
      "componentType": 5126,
      "count": 26122,
      "max": [
        0.9998955130577087,
        0.9999825954437256,
        0.9999674558639526
      ],
      "min": [
        -0.9999063611030579,
        -0.9999440908432007,
        -0.9999946355819702
      ],
      "type": "VEC3"
    },
    {
      "bufferView": 1,
      "byteOffset": 3318648,
      "componentType": 5126,
      "count": 26122,
      "max": [
        0.9638010263442993,
        0.9453189969062805
      ],
      "min": [
        0.03168340027332306,
        0.03629310056567192
      ],
      "type": "VEC2"
    },
    {
      "bufferView": 0,
      "byteOffset": 4663908,
      "componentType": 5125,
      "count": 71067,
      "type": "SCALAR"
    }
  ],
  "asset": {
    "extras": {
      "author": "gogiart (https://sketchfab.com/agt14032013)",
      "license": "CC-BY-4.0 (http://creativecommons.org/licenses/by/4.0/)",
      "source": "https://sketchfab.com/3d-models/fishing-net-iii-6feb1ad1236a448f8b6eca1d7995f653",
      "title": "Fishing Net III"
    },
    "generator": "Sketchfab-16.95.0",
    "version": "2.0"
  },
  "bufferViews": [
    {
      "buffer": 0,
      "byteLength": 4948176,
      "name": "floatBufferViews",
      "target": 34963
    },
    {
      "buffer": 0,
      "byteLength": 3527624,
      "byteOffset": 4948176,
      "byteStride": 8,
      "name": "floatBufferViews",
      "target": 34962
    },
    {
      "buffer": 0,
      "byteLength": 10582872,
      "byteOffset": 8475800,
      "byteStride": 12,
      "name": "floatBufferViews",
      "target": 34962
    }
  ],
  "buffers": [
    {
      "byteLength": 19058672,
      "uri": "scene.bin"
    }
  ],
  "images": [
    {
      "uri": "textures/acmat_0_baseColor.jpeg"
    },
    {
      "uri": "textures/acmat_1_baseColor.jpeg"
    }
  ],
  "materials": [
    {
      "doubleSided": true,
      "name": "acmat_0",
      "pbrMetallicRoughness": {
        "baseColorTexture": {
          "index": 0
        },
        "metallicFactor": 0.0,
        "roughnessFactor": 0.9327282867797029
      }
    },
    {
      "doubleSided": true,
      "name": "acmat_1",
      "pbrMetallicRoughness": {
        "baseColorTexture": {
          "index": 1
        },
        "metallicFactor": 0.0,
        "roughnessFactor": 0.9327282867797029
      }
    }
  ],
  "meshes": [
    {
      "name": "Object_0",
      "primitives": [
        {
          "attributes": {
            "NORMAL": 1,
            "POSITION": 0,
            "TEXCOORD_0": 2
          },
          "indices": 3,
          "material": 0,
          "mode": 4
        }
      ]
    },
    {
      "name": "Object_1",
      "primitives": [
        {
          "attributes": {
            "NORMAL": 5,
            "POSITION": 4,
            "TEXCOORD_0": 6
          },
          "indices": 7,
          "material": 0,
          "mode": 4
        }
      ]
    },
    {
      "name": "Object_2",
      "primitives": [
        {
          "attributes": {
            "NORMAL": 9,
            "POSITION": 8,
            "TEXCOORD_0": 10
          },
          "indices": 11,
          "material": 0,
          "mode": 4
        }
      ]
    },
    {
      "name": "Object_3",
      "primitives": [
        {
          "attributes": {
            "NORMAL": 13,
            "POSITION": 12,
            "TEXCOORD_0": 14
          },
          "indices": 15,
          "material": 1,
          "mode": 4
        }
      ]
    },
    {
      "name": "Object_4",
      "primitives": [
        {
          "attributes": {
            "NORMAL": 17,
            "POSITION": 16,
            "TEXCOORD_0": 18
          },
          "indices": 19,
          "material": 1,
          "mode": 4
        }
      ]
    },
    {
      "name": "Object_5",
      "primitives": [
        {
          "attributes": {
            "NORMAL": 21,
            "POSITION": 20,
            "TEXCOORD_0": 22
          },
          "indices": 23,
          "material": 1,
          "mode": 4
        }
      ]
    },
    {
      "name": "Object_6",
      "primitives": [
        {
          "attributes": {
            "NORMAL": 25,
            "POSITION": 24,
            "TEXCOORD_0": 26
          },
          "indices": 27,
          "material": 1,
          "mode": 4
        }
      ]
    },
    {
      "name": "Object_7",
      "primitives": [
        {
          "attributes": {
            "NORMAL": 29,
            "POSITION": 28,
            "TEXCOORD_0": 30
          },
          "indices": 31,
          "material": 1,
          "mode": 4
        }
      ]
    },
    {
      "name": "Object_8",
      "primitives": [
        {
          "attributes": {
            "NORMAL": 33,
            "POSITION": 32,
            "TEXCOORD_0": 34
          },
          "indices": 35,
          "material": 1,
          "mode": 4
        }
      ]
    },
    {
      "name": "Object_9",
      "primitives": [
        {
          "attributes": {
            "NORMAL": 37,
            "POSITION": 36,
            "TEXCOORD_0": 38
          },
          "indices": 39,
          "material": 1,
          "mode": 4
        }
      ]
    }
  ],
  "nodes": [
    {
      "children": [
        1
      ],
      "matrix": [
        1.0,
        0.0,
        0.0,
        0.0,
        0.0,
        2.220446049250313e-16,
        -1.0,
        0.0,
        0.0,
        1.0,
        2.220446049250313e-16,
        0.0,
        0.0,
        0.0,
        0.0,
        1.0
      ],
      "name": "Sketchfab_model"
    },
    {
      "children": [
        2,
        3,
        4,
        5,
        6,
        7,
        8,
        9,
        10,
        11
      ],
      "name": "Fishing net III.obj.cleaner.materialmerger.gles"
    },
    {
      "mesh": 0,
      "name": "Object_2"
    },
    {
      "mesh": 1,
      "name": "Object_3"
    },
    {
      "mesh": 2,
      "name": "Object_4"
    },
    {
      "mesh": 3,
      "name": "Object_5"
    },
    {
      "mesh": 4,
      "name": "Object_6"
    },
    {
      "mesh": 5,
      "name": "Object_7"
    },
    {
      "mesh": 6,
      "name": "Object_8"
    },
    {
      "mesh": 7,
      "name": "Object_9"
    },
    {
      "mesh": 8,
      "name": "Object_10"
    },
    {
      "mesh": 9,
      "name": "Object_11"
    }
  ],
  "samplers": [
    {
      "magFilter": 9729,
      "minFilter": 9987,
      "wrapS": 10497,
      "wrapT": 10497
    }
  ],
  "scene": 0,
  "scenes": [
    {
      "name": "Sketchfab_Scene",
      "nodes": [
        0
      ]
    }
  ],
  "textures": [
    {
      "sampler": 0,
      "source": 0
    },
    {
      "sampler": 0,
      "source": 1
    }
  ]
}
