{
  "accessors": [
    {
      "bufferView": 2,
      "componentType": 5126,
      "count": 284,
      "max": [
        33.741539001464844,
        33.20435333251953,
        127.6420669555664
      ],
      "min": [
        -33.89860916137695,
        -34.4358024597168,
        121.51255798339844
      ],
      "type": "VEC3"
    },
    {
      "bufferView": 2,
      "byteOffset": 3408,
      "componentType": 5126,
      "count": 284,
      "max": [
        0.9999997615814209,
        0.9999997615814209,
        1.0
      ],
      "min": [
        -0.9999997615814209,
        -0.9999997615814209,
        -0.6806180477142334
      ],
      "type": "VEC3"
    },
    {
      "bufferView": 3,
      "componentType": 5126,
      "count": 284,
      "max": [
        0.999984860420227,
        0.9894541501998901,
        1.0,
        1.0
      ],
      "min": [
        -0.9999848008155823,
        -0.6768574118614197,
        -1.0,
        1.0
      ],
      "type": "VEC4"
    },
    {
      "bufferView": 1,
      "componentType": 5126,
      "count": 284,
      "max": [
        0.9928910136222839,
        0.8591570258140564
      ],
      "min": [
        0.4028419852256775,
        5.6000000768108293e-05
      ],
      "type": "VEC2"
    },
    {
      "bufferView": 0,
      "componentType": 5125,
      "count": 894,
      "type": "SCALAR"
    },
    {
      "bufferView": 2,
      "byteOffset": 6816,
      "componentType": 5126,
      "count": 246,
      "max": [
        36.411766052246094,
        36.190956115722656,
        121.8416976928711
      ],
      "min": [
        -36.52245330810547,
        -37.934207916259766,
        117.712890625
      ],
      "type": "VEC3"
    },
    {
      "bufferView": 2,
      "byteOffset": 9768,
      "componentType": 5126,
      "count": 246,
      "max": [
        1.0,
        1.0,
        1.0
      ],
      "min": [
        -1.0,
        -1.0,
        -1.0
      ],
      "type": "VEC3"
    },
    {
      "bufferView": 3,
      "byteOffset": 4544,
      "componentType": 5126,
      "count": 246,
      "max": [
        0.9735857844352722,
        0.9985100030899048,
        1.0,
        1.0
      ],
      "min": [
        -0.9999999403953552,
        -1.0,
        -0.9999998211860657,
        1.0
      ],
      "type": "VEC4"
    },
    {
      "bufferView": 1,
      "byteOffset": 2272,
      "componentType": 5126,
      "count": 246,
      "max": [
        0.8737639784812927,
        0.997747004032135
      ],
      "min": [
        0.13640600442886353,
        5.8000001445179805e-05
      ],
      "type": "VEC2"
    },
    {
      "bufferView": 0,
      "byteOffset": 3576,
      "componentType": 5125,
      "count": 768,
      "type": "SCALAR"
    },
    {
      "bufferView": 2,
      "byteOffset": 12720,
      "componentType": 5126,
      "count": 167,
      "max": [
        39.96112823486328,
        39.42390060424805,
        118.97406005859375
      ],
      "min": [
        -40.11818313598633,
        -40.65534973144531,
        -9.680145263671875
      ],
      "type": "VEC3"
    },
    {
      "bufferView": 2,
      "byteOffset": 14724,
      "componentType": 5126,
      "count": 167,
      "max": [
        0.9995988607406616,
        0.9995988607406616,
        0.3513290286064148
      ],
      "min": [
        -0.9995988607406616,
        -0.9995988607406616,
        -1.0
      ],
      "type": "VEC3"
    },
    {
      "bufferView": 3,
      "byteOffset": 8480,
      "componentType": 5126,
      "count": 167,
      "max": [
        0.6878538727760315,
        0.7263492345809937,
        0.0,
        1.0
      ],
      "min": [
        -0.38209637999534607,
        -0.3820963501930237,
        -0.9995989203453064,
        1.0
      ],
      "type": "VEC4"
    },
    {
      "bufferView": 1,
      "byteOffset": 4240,
      "componentType": 5126,
      "count": 167,
      "max": [
        0.39595499634742737,
        0.9566059708595276
      ],
      "min": [
        0.00203699991106987,
        0.0010270000202581286
      ],
      "type": "VEC2"
    },
    {
      "bufferView": 0,
      "byteOffset": 6648,
      "componentType": 5125,
      "count": 774,
      "type": "SCALAR"
    },
    {
      "bufferView": 2,
      "byteOffset": 16728,
      "componentType": 5126,
      "count": 116,
      "max": [
        -35.805564880371094,
        5.183341979980469,
        99.62260437011719
      ],
      "min": [
        -41.86529541015625,
        -6.233122825622559,
        90.87850952148438
      ],
      "type": "VEC3"
    },
    {
      "bufferView": 2,
      "byteOffset": 18120,
      "componentType": 5126,
      "count": 116,
      "max": [
        0.06556803733110428,
        1.0,
        0.9998651146888733
      ],
      "min": [
        -0.9920701384544373,
        -1.0,
        -0.9987698793411255
      ],
      "type": "VEC3"
    },
    {
      "bufferView": 3,
      "byteOffset": 11152,
      "componentType": 5126,
      "count": 116,
      "max": [
        0.9997817873954773,
        1.0,
        0.2548127770423889,
        1.0
      ],
      "min": [
        -0.9999516010284424,
        -0.9999988675117493,
        -0.9920701384544373,
        1.0
      ],
      "type": "VEC4"
    },
    {
      "bufferView": 1,
      "byteOffset": 5576,
      "componentType": 5126,
      "count": 116,
      "max": [
        0.8609700202941895,
        0.9965459704399109
      ],
      "min": [
        0.08991300314664841,
        0.2402469962835312
      ],
      "type": "VEC2"
    },
    {
      "bufferView": 0,
      "byteOffset": 9744,
      "componentType": 5125,
      "count": 234,
      "type": "SCALAR"
    },
    {
      "bufferView": 2,
      "byteOffset": 19512,
      "componentType": 5126,
      "count": 199,
      "max": [
        -38.82698059082031,
        8.778613090515137,
        94.61241149902344
      ],
      "min": [
        -43.56624984741211,
        -9.502005577087402,
        80.5918960571289
      ],
      "type": "VEC3"
    },
    {
      "bufferView": 2,
      "byteOffset": 21900,
      "componentType": 5126,
      "count": 199,
      "max": [
        0.9991457462310791,
        0.9999200105667114,
        0.9949167370796204
      ],
      "min": [
        -0.9628204107284546,
        -0.999782145023346,
        -0.9927839040756226
      ],
      "type": "VEC3"
    },
    {
      "bufferView": 3,
      "byteOffset": 13008,
      "componentType": 5126,
      "count": 199,
      "max": [
        0.9998698830604553,
        0.9959364533424377,
        0.9531610608100891,
        1.0
      ],
      "min": [
        -0.9993839859962463,
        -0.9989903569221497,
        -0.9991190433502197,
        1.0
      ],
      "type": "VEC4"
    },
    {
      "bufferView": 1,
      "byteOffset": 6504,
      "componentType": 5126,
      "count": 199,
      "max": [
        0.9937869906425476,
        0.9994660019874573
      ],
      "min": [
        0.005259000230580568,
        0.5303279757499695
      ],
      "type": "VEC2"
    },
    {
      "bufferView": 0,
      "byteOffset": 10680,
      "componentType": 5125,
      "count": 792,
      "type": "SCALAR"
    },
    {
      "bufferView": 2,
      "byteOffset": 24288,
      "componentType": 5126,
      "count": 116,
      "max": [
        41.94252395629883,
        5.316774845123291,
        99.72174072265625
      ],
      "min": [
        35.77876281738281,
        -6.263868808746338,
        90.87850952148438
      ],
      "type": "VEC3"
    },
    {
      "bufferView": 2,
      "byteOffset": 25680,
      "componentType": 5126,
      "count": 116,
      "max": [
        0.9942977428436279,
        1.0,
        0.9999831318855286
      ],
      "min": [
        -0.03696201369166374,
        -1.0,
        -0.9982697367668152
      ],
      "type": "VEC3"
    },
    {
      "bufferView": 3,
      "byteOffset": 16192,
      "componentType": 5126,
      "count": 116,
      "max": [
        0.999991774559021,
        1.0,
        0.9928621649742126,
        1.0
      ],
      "min": [
        -0.999991774559021,
        -1.0,
        -0.2640911638736725,
        1.0
      ],
      "type": "VEC4"
    },
    {
      "bufferView": 1,
      "byteOffset": 8096,
      "componentType": 5126,
      "count": 116,
      "max": [
        0.8603739738464355,
        0.9968249797821045
      ],
      "min": [
        0.09101399779319763,
        0.21525700390338898
      ],
      "type": "VEC2"
    },
    {
      "bufferView": 0,
      "byteOffset": 13848,
      "componentType": 5125,
      "count": 234,
      "type": "SCALAR"
    },
    {
      "bufferView": 2,
      "byteOffset": 27072,
      "componentType": 5126,
      "count": 199,
      "max": [
        43.84004211425781,
        8.834176063537598,
        94.56954956054688
      ],
      "min": [
        39.00611877441406,
        -9.627225875854492,
        80.56513977050781
      ],
      "type": "VEC3"
    },
    {
      "bufferView": 2,
      "byteOffset": 29460,
      "componentType": 5126,
      "count": 199,
      "max": [
        0.9570823311805725,
        0.9999577403068542,
        0.9957590103149414
      ],
      "min": [
        -0.9988436102867126,
        -0.9997556209564209,
        -0.9854926466941833
      ],
      "type": "VEC3"
    },
    {
      "bufferView": 3,
      "byteOffset": 18048,
      "componentType": 5126,
      "count": 199,
      "max": [
        0.9998470544815063,
        0.9976964592933655,
        0.9505103826522827,
        1.0
      ],
      "min": [
        -0.9997677206993103,
        -0.9976000785827637,
        -0.9990168809890747,
        1.0
      ],
      "type": "VEC4"
    },
    {
      "bufferView": 1,
      "byteOffset": 9024,
      "componentType": 5126,
      "count": 199,
      "max": [
        0.9983000159263611,
        0.9968550205230713
      ],
      "min": [
        0.0468129999935627,
        0.5312950015068054
      ],
      "type": "VEC2"
    },
    {
      "bufferView": 0,
      "byteOffset": 14784,
      "componentType": 5125,
      "count": 792,
      "type": "SCALAR"
    }
  ],
  "asset": {
    "extras": {
      "author": "BlackMike (https://sketchfab.com/BlackMike)",
      "license": "CC-BY-4.0 (http://creativecommons.org/licenses/by/4.0/)",
      "source": "https://sketchfab.com/3d-models/plastic-barrel-36eed80bde5b4346be3c8de19c15a006",
      "title": "Plastic barrel"
    },
    "generator": "Sketchfab-12.66.0",
    "version": "2.0"
  },
  "bufferViews": [
    {
      "buffer": 0,
      "byteLength": 17952,
      "name": "floatBufferViews",
      "target": 34963
    },
    {
      "buffer": 0,
      "byteLength": 10616,
      "byteOffset": 17952,
      "byteStride": 8,
      "name": "floatBufferViews",
      "target": 34962
    },
    {
      "buffer": 0,
      "byteLength": 31848,
      "byteOffset": 28568,
      "byteStride": 12,
      "name": "floatBufferViews",
      "target": 34962
    },
    {
      "buffer": 0,
      "byteLength": 21232,
      "byteOffset": 60416,
      "byteStride": 16,
      "name": "floatBufferViews",
      "target": 34962
    }
  ],
  "buffers": [
    {
      "byteLength": 81648,
      "uri": "scene.bin"
    }
  ],
  "images": [
    {
      "uri": "textures/lambert27_baseColor.jpeg"
    },
    {
      "uri": "textures/lambert27_metallicRoughness.png"
    },
    {
      "uri": "textures/lambert27_normal.png"
    }
  ],
  "materials": [
    {
      "doubleSided": true,
      "name": "lambert27",
      "normalTexture": {
        "index": 2,
        "scale": 0.5246049407
      },
      "occlusionTexture": {
        "index": 1
      },
      "pbrMetallicRoughness": {
        "baseColorTexture": {
          "index": 0
        },
        "metallicRoughnessTexture": {
          "index": 1
        }
      }
    }
  ],
  "meshes": [
    {
      "name": "defaultMaterial",
      "primitives": [
        {
          "attributes": {
            "NORMAL": 1,
            "POSITION": 0,
            "TANGENT": 2,
            "TEXCOORD_0": 3
          },
          "indices": 4,
          "material": 0,
          "mode": 4
        }
      ]
    },
    {
      "name": "defaultMaterial",
      "primitives": [
        {
          "attributes": {
            "NORMAL": 6,
            "POSITION": 5,
            "TANGENT": 7,
            "TEXCOORD_0": 8
          },
          "indices": 9,
          "material": 0,
          "mode": 4
        }
      ]
    },
    {
      "name": "defaultMaterial",
      "primitives": [
        {
          "attributes": {
            "NORMAL": 11,
            "POSITION": 10,
            "TANGENT": 12,
            "TEXCOORD_0": 13
          },
          "indices": 14,
          "material": 0,
          "mode": 4
        }
      ]
    },
    {
      "name": "defaultMaterial",
      "primitives": [
        {
          "attributes": {
            "NORMAL": 16,
            "POSITION": 15,
            "TANGENT": 17,
            "TEXCOORD_0": 18
          },
          "indices": 19,
          "material": 0,
          "mode": 4
        }
      ]
    },
    {
      "name": "defaultMaterial",
      "primitives": [
        {
          "attributes": {
            "NORMAL": 21,
            "POSITION": 20,
            "TANGENT": 22,
            "TEXCOORD_0": 23
          },
          "indices": 24,
          "material": 0,
          "mode": 4
        }
      ]
    },
    {
      "name": "defaultMaterial",
      "primitives": [
        {
          "attributes": {
            "NORMAL": 26,
            "POSITION": 25,
            "TANGENT": 27,
            "TEXCOORD_0": 28
          },
          "indices": 29,
          "material": 0,
          "mode": 4
        }
      ]
    },
    {
      "name": "defaultMaterial",
      "primitives": [
        {
          "attributes": {
            "NORMAL": 31,
            "POSITION": 30,
            "TANGENT": 32,
            "TEXCOORD_0": 33
          },
          "indices": 34,
          "material": 0,
          "mode": 4
        }
      ]
    }
  ],
  "nodes": [
    {
      "children": [
        1
      ],
      "matrix": [
        1.0,
        0.0,
        0.0,
        0.0,
        0.0,
        2.220446049250313e-16,
        -1.0,
        0.0,
        0.0,
        1.0,
        2.220446049250313e-16,
        0.0,
        0.0,
        0.0,
        0.0,
        1.0
      ],
      "name": "Sketchfab_model"
    },
    {
      "children": [
        2
      ],
      "matrix": [
        1.0,
        0.0,
        0.0,
        0.0,
        0.0,
        -4.371139006309477e-08,
        0.999999999999999,
        0.0,
        0.0,
        -0.999999999999999,
        -4.371139006309477e-08,
        0.0,
        0.0,
        0.0,
        0.0,
        1.0
      ],
      "name": "Collada visual scene group"
    },
    {
      "children": [
        3,
        5,
        7,
        9,
        11,
        13,
        15
      ],
      "matrix": [
        1.0,
        0.0,
        0.0,
        0.0,
        0.0,
        0.0,
        -1.0,
        0.0,
        0.0,
        1.0,
        0.0,
        0.0,
        0.0,
        0.0,
        0.0,
        1.0
      ],
      "name": "LP1"
    },
    {
      "children": [
        4
      ],
      "name": "tap_low"
    },
    {
      "mesh": 0,
      "name": "defaultMaterial"
    },
    {
      "children": [
        6
      ],
      "name": "ring_low"
    },
    {
      "mesh": 1,
      "name": "defaultMaterial"
    },
    {
      "children": [
        8
      ],
      "name": "botle_low"
    },
    {
      "mesh": 2,
      "name": "defaultMaterial"
    },
    {
      "children": [
        10
      ],
      "name": "l_low"
    },
    {
      "mesh": 3,
      "name": "defaultMaterial"
    },
    {
      "children": [
        12
      ],
      "name": "ll_low"
    },
    {
      "mesh": 4,
      "name": "defaultMaterial"
    },
    {
      "children": [
        14
      ],
      "name": "r_low"
    },
    {
      "mesh": 5,
      "name": "defaultMaterial"
    },
    {
      "children": [
        16
      ],
      "name": "rr_low"
    },
    {
      "mesh": 6,
      "name": "defaultMaterial"
    }
  ],
  "samplers": [
    {
      "magFilter": 9729,
      "minFilter": 9987,
      "wrapS": 10497,
      "wrapT": 10497
    }
  ],
  "scene": 0,
  "scenes": [
    {
      "name": "Sketchfab_Scene",
      "nodes": [
        0
      ]
    }
  ],
  "textures": [
    {
      "sampler": 0,
      "source": 0
    },
    {
      "sampler": 0,
      "source": 1
    },
    {
      "sampler": 0,
      "source": 2
    }
  ]
}
