{
  "accessors": [
    {
      "bufferView": 2,
      "componentType": 5126,
      "count": 451,
      "max": [
        0.15825094282627106,
        0.13804493844509125,
        0.42121583223342896
      ],
      "min": [
        -0.15681523084640503,
        -0.1384206861257553,
        0.0001527911954326555
      ],
      "type": "VEC3"
    },
    {
      "bufferView": 2,
      "byteOffset": 5412,
      "componentType": 5126,
      "count": 451,
      "max": [
        0.9955927729606628,
        1.0,
        0.9996917247772217
      ],
      "min": [
        -0.9953097701072693,
        -1.0,
        -0.9980931282043457
      ],
      "type": "VEC3"
    },
    {
      "bufferView": 3,
      "componentType": 5126,
      "count": 451,
      "max": [
        0.9996819496154785,
        0.9995114803314209,
        0.999740481376648,
        1.0
      ],
      "min": [
        -0.9995474815368652,
        -0.9999993443489075,
        -0.9784494042396545,
        1.0
      ],
      "type": "VEC4"
    },
    {
      "bufferView": 1,
      "componentType": 5126,
      "count": 451,
      "max": [
        0.9385316371917725,
        0.9948769211769104
      ],
      "min": [
        0.0023556684609502554,
        0.003654573345556855
      ],
      "type": "VEC2"
    },
    {
      "bufferView": 0,
      "componentType": 5125,
      "count": 1974,
      "type": "SCALAR"
    }
  ],
  "asset": {
    "extras": {
      "author": "hoxsvl (https://sketchfab.com/hoxsvl)",
      "license": "CC-BY-4.0 (http://creativecommons.org/licenses/by/4.0/)",
      "source": "https://sketchfab.com/3d-models/1-plastic-canister-lowpoly-7142abb5e42f49aaa16b87b8e295a18b",
      "title": "#1 Plastic Canister | Канистра [LowPoly]"
    },
    "generator": "Sketchfab-15.30.0",
    "version": "2.0"
  },
  "bufferViews": [
    {
      "buffer": 0,
      "byteLength": 7896,
      "name": "floatBufferViews",
      "target": 34963
    },
    {
      "buffer": 0,
      "byteLength": 3608,
      "byteOffset": 7896,
      "byteStride": 8,
      "name": "floatBufferViews",
      "target": 34962
    },
    {
      "buffer": 0,
      "byteLength": 10824,
      "byteOffset": 11504,
      "byteStride": 12,
      "name": "floatBufferViews",
      "target": 34962
    },
    {
      "buffer": 0,
      "byteLength": 7216,
      "byteOffset": 22328,
      "byteStride": 16,
      "name": "floatBufferViews",
      "target": 34962
    }
  ],
  "buffers": [
    {
      "byteLength": 29544,
      "uri": "scene.bin"
    }
  ],
  "extensionsRequired": [
    "KHR_materials_pbrSpecularGlossiness"
  ],
  "extensionsUsed": [
    "KHR_materials_pbrSpecularGlossiness"
  ],
  "images": [
    {
      "uri": "textures/kanistra_1_diffuse.png"
    },
    {
      "uri": "textures/kanistra_1_specularGlossiness.png"
    },
    {
      "uri": "textures/kanistra_1_normal.png"
    },
    {
      "uri": "textures/kanistra_1_occlusion.png"
    }
  ],
  "materials": [
    {
      "doubleSided": true,
      "extensions": {
        "KHR_materials_pbrSpecularGlossiness": {
          "diffuseFactor": [
            1.0,
            1.0,
            1.0,
            1.0
          ],
          "diffuseTexture": {
            "index": 0
          },
          "glossinessFactor": 1.0,
          "specularFactor": [
            0.05,
            0.05,
            0.05
          ],
          "specularGlossinessTexture": {
            "index": 1
          }
        }
      },
      "name": "kanistra_1",
      "normalTexture": {
        "index": 2
      },
      "occlusionTexture": {
        "index": 3,
        "strength": 0.65
      }
    }
  ],
  "meshes": [
    {
      "name": "kanistra_1_kanistra_1_0",
      "primitives": [
        {
          "attributes": {
            "NORMAL": 1,
            "POSITION": 0,
            "TANGENT": 2,
            "TEXCOORD_0": 3
          },
          "indices": 4,
          "material": 0,
          "mode": 4
        }
      ]
    }
  ],
  "nodes": [
    {
      "children": [
        1
      ],
      "matrix": [
        1.0,
        0.0,
        0.0,
        0.0,
        0.0,
        2.220446049250313e-16,
        -1.0,
        0.0,
        0.0,
        1.0,
        2.220446049250313e-16,
        0.0,
        0.0,
        0.0,
        0.0,
        1.0
      ],
      "name": "Sketchfab_model"
    },
    {
      "children": [
        2
      ],
      "matrix": [
        0.009999999776482582,
        0.0,
        0.0,
        0.0,
        0.0,
        0.0,
        0.009999999776482582,
        0.0,
        0.0,
        -0.009999999776482582,
        0.0,
        0.0,
        0.0,
        0.0,
        0.0,
        1.0
      ],
      "name": "5f3fa6145f5b454e91857ae420aa42d7.fbx"
    },
    {
      "children": [
        3
      ],
      "name": "RootNode"
    },
    {
      "children": [
        4
      ],
      "matrix": [
        100.0,
        0.0,
        0.0,
        0.0,
        0.0,
        -1.629206793918314e-05,
        -99.99999999999868,
        0.0,
        0.0,
        99.99999999999868,
        -1.629206793918314e-05,
        0.0,
        0.0,
        0.0,
        0.0,
        1.0
      ],
      "name": "kanistra_1"
    },
    {
      "mesh": 0,
      "name": "kanistra_1_kanistra_1_0"
    }
  ],
  "samplers": [
    {
      "magFilter": 9729,
      "minFilter": 9987,
      "wrapS": 10497,
      "wrapT": 10497
    }
  ],
  "scene": 0,
  "scenes": [
    {
      "name": "Sketchfab_Scene",
      "nodes": [
        0
      ]
    }
  ],
  "textures": [
    {
      "sampler": 0,
      "source": 0
    },
    {
      "sampler": 0,
      "source": 1
    },
    {
      "sampler": 0,
      "source": 2
    },
    {
      "sampler": 0,
      "source": 3
    }
  ]
}
